# xmcd
#
# Track frame offsets: 
#        150
#        10203
#        21919
#        32614
#        43590
#        54829
#        66258
#        74963
#        84107
#        94711
#        103978
#        114254
#
# Disc length: 1672 seconds
#
# Revision: 0
# Processed by: cddbd v1.5.2PL0 Copyright (c) Steve Scherf et al.
# Submitted via: ExactAudioCopy v0.99pb4
#
DISCID=9806860c
DTITLE=Janis Joplin - Big Brother and The Holding Company
DYEAR=1967
DGENRE=Blues
TTITLE0=Bye, Bye Baby
TTITLE1=Easy Rider
TTITLE2=Intruder
TTITLE3=Light Is Faster Than The Sound
TTITLE4=Call On Me
TTITLE5=Coo Coo
TTITLE6=Women Is Losers
TTITLE7=Blindman
TTITLE8=Down On Me
TTITLE9=Caterpillar
TTITLE10=All Is Loneliness
TTITLE11=The Last Time
EXTD=
EXTT0=
EXTT1=
EXTT2=
EXTT3=
EXTT4=
EXTT5=
EXTT6=
EXTT7=
EXTT8=
EXTT9=
EXTT10=
EXTT11=
PLAYORDER=
